<svg xmlns="http://www.w3.org/2000/svg" xmlns:xlink="http://www.w3.org/1999/xlink" width="500" zoomAndPan="magnify" viewBox="0 0 375 359.999987" height="480" preserveAspectRatio="xMidYMid meet" version="1.0"><defs><clipPath id="2bfcf32612"><path d="M 15.808594 41.085938 L 359.308594 41.085938 L 359.308594 318.585938 L 15.808594 318.585938 Z M 15.808594 41.085938 " clip-rule="nonzero"/></clipPath></defs><rect x="-37.5" width="450" fill="#ffffff" y="-35.999999" height="431.999984" fill-opacity="1"/><rect x="-37.5" width="450" fill="#f1e9e9" y="-35.999999" height="431.999984" fill-opacity="1"/><g clip-path="url(#2bfcf32612)"><path fill="#000000" d="M 346.601562 144.636719 L 344.128906 146.765625 L 352.851562 157.066406 C 327.855469 154.113281 303.203125 154.730469 279.375 158.851562 C 257.128906 162.765625 235.636719 169.699219 215.445312 179.65625 C 197.386719 188.515625 180.632812 199.5 165.59375 212.410156 C 157.765625 219.140625 150.417969 226.417969 143.828125 233.902344 C 143.550781 232.597656 143.347656 231.226562 143.070312 229.921875 C 137.714844 203.210938 129.199219 175.8125 118.488281 150.816406 C 106.265625 122.183594 91.914062 98.285156 75.914062 79.953125 C 57.511719 58.59375 37.53125 45.550781 16.519531 41.085938 L 15.832031 44.246094 C 36.15625 48.570312 55.519531 61.273438 73.511719 81.941406 C 81.546875 91.28125 89.304688 102.199219 96.582031 114.421875 C 103.382812 125.820312 109.699219 138.523438 115.46875 151.984375 C 126.109375 176.839844 134.488281 203.964844 139.84375 230.46875 C 140.257812 232.667969 140.667969 234.796875 141.082031 236.992188 C 137.507812 241.25 134.214844 245.507812 131.191406 249.835938 C 114.300781 274.074219 107.777344 296.871094 114.300781 309.367188 C 117.527344 315.617188 123.84375 318.914062 132.496094 318.914062 C 138.402344 318.914062 145.957031 314.519531 148.152344 293.644531 C 149.664062 279.359375 148.359375 259.859375 144.511719 238.023438 C 151.378906 229.921875 159.207031 222.09375 167.65625 214.882812 C 182.488281 202.179688 199.035156 191.261719 216.820312 182.539062 C 236.734375 172.789062 257.953125 165.855469 279.855469 162.078125 C 303.339844 157.957031 327.785156 157.40625 352.574219 160.292969 L 341.519531 168.394531 L 343.441406 171.003906 L 359.167969 159.535156 Z M 144.996094 293.230469 C 144.238281 300.578125 142.726562 306.210938 140.53125 310.054688 C 138.402344 313.761719 135.792969 315.617188 132.566406 315.617188 C 125.082031 315.617188 119.929688 313.007812 117.253906 307.859375 C 114.4375 302.433594 114.4375 294.46875 117.183594 284.71875 C 120.066406 274.625 125.835938 263.222656 133.871094 251.6875 C 136.34375 248.1875 138.953125 244.683594 141.835938 241.183594 C 145.335938 261.578125 146.4375 279.773438 144.996094 293.230469 Z M 144.996094 293.230469 " fill-opacity="1" fill-rule="nonzero"/></g></svg>